<svg width="54" height="48" viewBox="0 0 54 48" fill="none" xmlns="http://www.w3.org/2000/svg">
<g id="Clip path group">
<mask id="mask0_29_4429" style="mask-type:luminance" maskUnits="userSpaceOnUse" x="0" y="0" width="54" height="48">
<g id="clip-path-17">
<path id="Vector" d="M53.8661 0.331543H0.941162V47.6855H53.8661V0.331543Z" fill="white"/>
</g>
</mask>
<g mask="url(#mask0_29_4429)">
<g id="Group">
<path id="Vector_2" fill-rule="evenodd" clip-rule="evenodd" d="M49.1219 7.32739H42.5178V44.7131H49.1219V7.32739ZM33.1155 12.812H39.7195V44.7131H33.1155V12.812ZM30.3171 20.7594H23.7132V44.7131H30.3171V20.7594ZM14.3107 25.1248H20.9149V44.7131H14.3107V25.1248ZM11.5124 32.2886H4.90839V44.7131H11.5124V32.2886ZM1.43835 0.55542C1.43831 0.496069 1.41471 0.439184 1.37274 0.397217C1.33077 0.35525 1.27389 0.331586 1.21454 0.331543C1.19905 0.331509 1.1836 0.333257 1.16852 0.336792C1.15431 0.339416 1.14053 0.343855 1.12744 0.349976C1.11668 0.354232 1.1063 0.359452 1.0965 0.365601C1.06422 0.38566 1.03761 0.413583 1.0191 0.446778C1.0006 0.479973 0.990809 0.517417 0.990723 0.55542V47.1196H53.767C53.8059 47.1197 53.8441 47.1096 53.8779 47.0903C53.9117 47.0711 53.9399 47.0435 53.9597 47.01C53.9795 46.9766 53.9903 46.9385 53.991 46.8997C53.9916 46.8608 53.9821 46.8223 53.9634 46.7882C53.9482 46.7601 53.927 46.7357 53.9014 46.7166C53.8866 46.705 53.8703 46.6956 53.853 46.6885C53.8256 46.6776 53.7965 46.6719 53.767 46.6718H1.43842L1.43835 0.55542Z" fill="white"/>
</g>
</g>
</g>
</svg>
