<svg width="46" height="46" viewBox="0 0 46 46" fill="none" xmlns="http://www.w3.org/2000/svg">
<g id="Clip path group">
<mask id="mask0_16_2949" style="mask-type:luminance" maskUnits="userSpaceOnUse" x="0" y="0" width="46" height="46">
<g id="clip-path-14">
<path id="Vector" d="M45.0282 0.710449H0.459839V45.2788H45.0282V0.710449Z" fill="white"/>
</g>
</mask>
<g mask="url(#mask0_16_2949)">
<g id="Group">
<path id="Vector_2" d="M15.5918 24.8845L10.1538 23.1126C10.1538 23.1126 9.50489 22.849 9.71324 22.251C9.75624 22.1276 9.84279 22.0229 10.1026 21.8416C11.3077 21.0018 32.4066 13.4181 32.4066 13.4181C32.711 13.3113 33.0384 13.2881 33.3548 13.351C33.4417 13.3779 33.5199 13.4274 33.5814 13.4944C33.6429 13.5614 33.6856 13.6435 33.7051 13.7324C33.743 13.8895 33.7587 14.0511 33.7521 14.2126C33.7501 14.3523 33.7333 14.4816 33.7208 14.6847C33.5922 16.7582 29.7473 32.2324 29.7473 32.2324C29.7473 32.2324 29.5173 33.1379 28.693 33.1686C28.4902 33.1755 28.2882 33.1413 28.0989 33.0683C27.9096 32.9953 27.7368 32.8849 27.5912 32.7436C25.9737 31.3523 20.3824 27.5947 19.1471 26.7684C19.1192 26.7496 19.0958 26.725 19.0783 26.6964C19.0609 26.6677 19.0498 26.6356 19.0458 26.6022C19.0284 26.5154 19.1211 26.407 19.1211 26.407C19.1211 26.407 28.8569 17.7528 29.1161 16.8448C29.1361 16.7744 29.0607 16.7398 28.9585 16.77C28.3119 17.0081 17.1024 24.0863 15.8653 24.8681C15.7762 24.895 15.6819 24.9005 15.5902 24.8843" fill="white"/>
</g>
</g>
</g>
</svg>
