<svg width="42" height="43" viewBox="0 0 42 43" fill="none" xmlns="http://www.w3.org/2000/svg">
<g id="Clip path group">
<mask id="mask0_16_2955" style="mask-type:luminance" maskUnits="userSpaceOnUse" x="0" y="0" width="42" height="43">
<g id="clip-path-24">
<path id="Vector" d="M41.9838 0.283203H0.200928V42.0659H41.9838V0.283203Z" fill="white"/>
</g>
</mask>
<g mask="url(#mask0_16_2955)">
<g id="Group">
<path id="Vector_2" d="M41.9838 21.1744C41.9837 26.3606 40.0546 31.3615 36.5717 35.2042C33.0888 39.047 28.3011 41.4569 23.1398 41.9652C17.9786 42.4735 12.8127 41.0439 8.64711 37.9544C4.48149 34.8649 1.61388 30.3364 0.602127 25.2498C-0.409626 20.1632 0.506808 14.8821 3.17311 10.4337C5.83941 5.98534 10.065 2.68772 15.0279 1.18227C19.9909 -0.323188 25.3364 0.0711582 30.0247 2.28861C34.713 4.50605 38.4089 8.38806 40.3936 13.1796C41.4485 15.7127 41.989 18.4304 41.9838 21.1744Z" fill="#1B9DF0"/>
<path id="Vector_3" d="M17.2693 32.1944C19.1549 32.2072 21.0243 31.8453 22.7689 31.1296C24.5134 30.4139 26.0984 29.3588 27.4318 28.0254C28.7651 26.6921 29.8203 25.1071 30.5359 23.3625C31.2516 21.6179 31.6136 19.7485 31.6007 17.8629C31.6007 17.6437 31.6007 17.4242 31.5901 17.2153C32.577 16.5003 33.4294 15.6161 34.1077 14.6038C33.1876 15.0094 32.2125 15.277 31.2142 15.3978C32.2675 14.7691 33.055 13.7773 33.4286 12.6088C32.4396 13.1933 31.3589 13.6065 30.2322 13.8309C29.5407 13.0953 28.6442 12.5844 27.6589 12.3643C26.6735 12.1443 25.6448 12.2252 24.7061 12.5967C23.7673 12.9682 22.9616 13.613 22.3937 14.4477C21.8257 15.2824 21.5215 16.2685 21.5206 17.2781C21.5175 17.6652 21.5631 18.0512 21.6564 18.4269C19.6532 18.3273 17.6934 17.8071 15.9045 16.9C14.1156 15.993 12.5377 14.7195 11.2735 13.1624C10.6307 14.271 10.435 15.5831 10.7261 16.8311C11.0172 18.079 11.7733 19.169 12.8402 19.8789C12.0417 19.8569 11.2603 19.6419 10.563 19.2522V19.3149C10.5634 20.4784 10.9661 21.606 11.7029 22.5065C12.4397 23.407 13.4652 24.025 14.6056 24.2558C14.1733 24.3738 13.7272 24.4335 13.2791 24.4332C12.9599 24.4335 12.6414 24.402 12.3284 24.3392C12.648 25.3406 13.2733 26.2166 14.1165 26.8442C14.9596 27.4719 15.9782 27.8196 17.0291 27.8385C15.2432 29.2363 13.0398 29.9941 10.7719 29.9904C10.3703 29.9924 9.96905 29.968 9.57068 29.9173C11.8604 31.4098 14.5361 32.2012 17.2693 32.1944Z" fill="white"/>
</g>
</g>
</g>
</svg>
