<svg width="55" height="122" viewBox="0 0 55 122" fill="none" xmlns="http://www.w3.org/2000/svg">
<path id="Vector" d="M46.9124 89.8467C48.0904 90.8577 49.2106 91.9343 50.2674 93.0713C51.1777 94.1655 51.9481 95.3688 52.5609 96.6534C52.969 97.5217 53.198 98.4632 53.2341 99.4219C53.2701 100.381 53.1126 101.337 52.7709 102.233C52.2355 103.949 51.3428 105.531 50.1515 106.877C48.9602 108.222 47.4973 109.3 45.8592 110.039C45.0014 110.458 44.1175 110.821 43.2132 111.126C34.8002 113.784 26.3719 116.403 17.9618 119.074C16.1519 119.687 14.2567 120.011 12.3461 120.033C10.5439 120.072 8.7651 119.62 7.19924 118.727C5.63337 117.834 4.33912 116.533 3.45446 114.963C-0.322394 108.893 3.36607 102.248 8.51207 100.074C9.59996 99.6153 10.8148 99.4669 11.9486 99.1055C15.3583 98.0186 18.7601 96.9096 22.1542 95.7784C23.0512 95.4805 23.912 95.0645 25.0072 94.6114C25.2606 93.743 25.4293 92.8521 25.5111 91.9512C25.7177 81.2141 26.6306 70.5021 28.244 59.8848C28.5965 57.2901 28.6942 54.6583 28.8411 52.0372C28.7677 51.5783 28.6078 51.1376 28.37 50.7383C27.3153 50.7706 26.7215 51.5752 25.9598 52.1231C25.0063 52.8339 23.9959 53.4649 22.9388 54.0098C18.8363 56.0323 14.7069 54.7676 11.7669 51.8995C10.1719 50.4251 9.1131 48.4617 8.75759 46.3189C8.40208 44.1761 8.77009 41.9759 9.80355 40.0655C10.4587 38.7948 11.2695 37.6105 12.2171 36.5401C18.3246 29.5025 23.6595 21.83 28.1302 13.6544C29.1932 11.7911 30.284 9.93561 31.4237 8.12115C32.057 7.11175 32.7634 6.15009 33.5374 5.24407C36.9993 1.18938 42.3241 1.06342 46.0091 2.47064C47.3615 2.97937 48.5818 3.7863 49.5795 4.83148C50.5771 5.87665 51.3265 7.13319 51.7718 8.50774C52.5083 10.5222 52.9499 12.6326 53.0828 14.7734C53.2151 18.581 53.0169 22.4062 52.8128 26.2177C52.636 29.5488 52.2938 32.8759 51.9627 36.1992C51.346 42.37 50.806 48.5527 50.0066 54.6982C49.0511 62.0302 47.9275 69.3359 47.4598 76.7236C47.3245 78.8622 46.9349 80.9815 46.7054 83.1182C46.4788 85.2432 46.0857 87.379 46.9124 89.8438L46.9124 89.8467Z" fill="white" stroke="black" stroke-width="3" stroke-miterlimit="10"/>
</svg>
