<svg width="85" height="112" viewBox="0 0 85 112" fill="none" xmlns="http://www.w3.org/2000/svg">
<path id="Vector" d="M35.8826 24.4121C32.64 25.5852 29.793 27.6472 27.6672 30.3623C26.7965 31.492 26.0802 32.7327 25.5374 34.0517C25.0662 35.1337 25.0242 36.3945 24.573 37.4883C23.9215 39.3009 22.7641 40.8888 21.2379 42.0638C19.7116 43.2389 17.8806 43.9518 15.9617 44.1182C13.9249 44.265 11.8893 43.8164 10.1029 42.827C8.31649 41.8377 6.85631 40.3503 5.90015 38.5459C4.44805 35.7598 4.08696 32.5323 4.88745 29.4941C5.65832 26.233 7.01873 23.1402 8.90161 20.3682C12.1246 15.6032 16.3059 11.5628 21.1785 8.50487C25.0178 6.07771 29.1948 4.23127 33.574 3.02538C37.7322 1.78072 42.1947 2.02835 46.1896 3.72545C50.1846 5.42255 53.4609 8.46241 55.4519 12.3193C56.2731 13.7747 56.9602 15.3019 57.5046 16.8818C59.549 23.2476 60.3224 29.9531 59.781 36.6172C58.8123 47.1221 55.029 56.5117 49.7078 65.4062C46.3948 70.9399 42.6852 76.2262 38.6082 81.2236C37.8699 82.1279 36.9412 82.9336 36.7839 84.1826C37.1775 84.4678 37.5525 84.9658 37.8621 84.9287C47.1033 83.8174 56.3972 83.3428 65.6775 82.6787C68.2908 82.4912 70.8914 82.1504 73.6951 81.8613C74.4402 82.0498 75.3865 82.2168 76.282 82.5312C80.5974 84.0508 82.7302 87.331 83.2068 91.6855C83.3202 93.123 83.1067 94.5676 82.5822 95.9109C82.0577 97.2541 81.236 98.4611 80.1785 99.4414C78.2024 101.566 75.507 102.88 72.616 103.129C68.0994 103.524 63.5867 104.033 59.0593 104.204C47.8466 104.59 36.6906 105.974 25.7234 108.34C23.3953 108.851 21.0256 109.183 18.678 109.61C16.0825 110.077 13.4121 109.899 10.9011 109.094C8.92443 108.588 7.12056 107.559 5.67932 106.115C4.23808 104.67 3.21275 102.864 2.71118 100.887C2.45918 99.9697 2.29858 99.0264 2.15454 98.3691C2.28436 94.6613 3.65452 91.1043 6.04565 88.2676C8.67065 84.8652 11.3943 81.54 14.0837 78.1875C17.8171 73.5303 21.6541 68.9541 25.2615 64.2021C27.7107 60.9756 29.9216 57.5576 32.0955 54.1348C34.7473 49.8693 36.7297 45.2226 37.9734 40.3564C39.2013 35.724 39.3271 30.8684 38.3406 26.1787C38.1462 25.2109 37.4773 24.5098 35.8884 24.4121H35.8826Z" fill="white" stroke="black" stroke-width="3" stroke-miterlimit="10"/>
</svg>
