<svg width="80" height="111" viewBox="0 0 80 111" fill="none" xmlns="http://www.w3.org/2000/svg">
<path id="Vector" d="M28.3485 104.276C25.8346 106.435 22.9173 108.074 19.7655 109.098C16.4682 108.967 13.2962 107.799 10.701 105.761C7.49598 103.289 5.63172 100.08 5.82312 95.9191C5.85225 93.8751 6.46522 91.882 7.58972 90.1749C8.71422 88.4679 10.3034 87.118 12.1698 86.2843C13.9166 85.5115 15.7697 85.0058 17.6669 84.7843C24.0318 83.7979 30.3097 82.3148 36.4432 80.3488C40.0565 79.1476 43.5946 77.6984 47.1083 76.2189C49.7493 75.0892 52.1694 73.5009 54.2567 71.5275C54.7521 71.1402 55.1638 70.6565 55.4669 70.1056C55.7701 69.5547 55.9584 68.9481 56.0204 68.3224C55.6337 67.9386 55.2304 67.2257 54.6552 67.0402C53.5186 66.6875 52.3404 66.4865 51.1512 66.4425C48.0516 66.3029 44.9462 66.1486 41.8495 66.2247C37.3141 66.2037 32.7864 65.8505 28.3026 65.1681C24.7019 64.7807 21.3637 63.1015 18.9061 60.4415C15.4276 56.7111 14.9286 52.3722 16.6923 47.8107C17.5613 45.8492 18.6931 44.015 20.0565 42.3585C23.2215 38.1378 27.1493 34.631 31.0438 31.1056C33.1659 29.1857 35.3348 27.3156 37.4364 25.3742C37.7313 25.0988 37.7577 24.5314 37.9579 23.9464C37.3376 23.7314 36.6935 23.592 36.0398 23.5314C32.9363 23.5968 29.8376 23.8205 26.7371 23.8341C22.2029 23.8546 17.6609 23.9123 13.1384 23.6417C7.30643 23.2921 4.0398 20.4737 2.40796 14.8507C2.24244 14.151 2.11625 13.4425 2.03003 12.7287C2.18139 12.0314 2.31616 11.3292 2.48608 10.6378C3.1143 8.05213 4.68849 5.79561 6.89819 4.31313C9.1079 2.83065 11.7928 2.2298 14.4236 2.62905C22.072 3.56655 29.6365 2.95815 37.2605 2.27553C44.1443 1.66225 51.0857 1.72768 58.0046 1.56166C60.1577 1.52671 62.2953 1.92973 64.2878 2.74623C65.9121 3.36115 67.3906 4.30761 68.6292 5.52517C69.8677 6.74272 70.8391 8.20472 71.4817 9.81826C72.1243 11.4318 72.4239 13.1615 72.3615 14.8971C72.299 16.6328 71.8758 18.3364 71.1189 19.8996C69.8576 22.7459 68.0667 25.3266 65.8416 27.504C61.7439 31.502 57.5398 35.3908 53.365 39.3107C51.9753 40.6154 50.5125 41.839 49.1414 43.1652C48.866 43.4308 48.8689 43.9874 48.6765 44.632C50.0915 44.8956 51.4724 45.172 52.866 45.4074C54.2771 45.6447 55.699 45.8205 57.1111 46.0558C63.7029 47.1535 69.3328 49.9718 73.573 55.2833C75.5612 57.6849 76.9385 60.5321 77.5873 63.5816C78.2361 66.631 78.137 69.7922 77.2986 72.7951C76.1337 77.2036 73.8701 81.2448 70.7195 84.5412C66.9617 88.5591 62.5367 91.8962 57.6404 94.4044C50.8504 98.0236 43.5408 100.206 36.197 102.297C33.6775 103.014 31.115 103.584 28.3484 104.278L28.3485 104.276Z" fill="white" stroke="black" stroke-width="3" stroke-miterlimit="10"/>
</svg>
